<?xml version="1.0" encoding="UTF-8"?>
<svg version="1.1" xmlns="http://www.w3.org/2000/svg" width="533" height="533">
<path d="M0 0 C3.83131975 2.95558952 5.48859253 4.66880599 6.3984375 9.52416992 C6.58857422 10.50662186 6.77871094 11.48907379 6.97460938 12.501297 C7.16861328 13.56692368 7.36261719 14.63255035 7.5625 15.73046875 C7.77455078 16.84270309 7.98660156 17.95493744 8.20507812 19.10087585 C8.65182659 21.45072211 9.09344172 23.80154933 9.53027344 26.15325928 C10.15696565 29.52330131 10.7980993 32.89019333 11.4453125 36.25634766 C12.70809978 42.83469136 13.94960839 49.4169324 15.1875 56 C15.40571411 57.1579306 15.62392822 58.31586121 15.84875488 59.50888062 C18.45958647 73.36582991 21.04253126 87.22579742 23.48510742 101.11352539 C25.93043336 114.99386041 28.5688716 128.83901052 31.1875 142.6875 C33.73642993 140.13857007 34.14772516 138.03120583 35.17578125 134.578125 C35.55283203 133.34835937 35.92988281 132.11859375 36.31835938 130.8515625 C36.90980766 128.90044332 37.4968149 126.94827118 38.07495117 124.99316406 C42.27776098 110.85333916 42.27776098 110.85333916 47.1875 106.6875 C53.45172276 103.81451701 58.68132809 103.24624298 65.51953125 103.24609375 C66.50061356 103.23374695 67.48169586 103.22140015 68.49250793 103.2086792 C70.58203929 103.18299842 72.67165087 103.1632584 74.7612915 103.14901733 C80.20989025 103.10861209 85.65754257 103.01429207 91.10546875 102.921875 C92.70255676 102.89585457 92.70255676 102.89585457 94.33190918 102.86930847 C106.33662805 102.65868806 118.24618603 101.96580817 130.1875 100.6875 C131.35200684 100.56536133 132.51651367 100.44322266 133.71630859 100.31738281 C158.13559259 97.6567406 183.58214058 93.73432641 206.1875 83.6875 C207.10660156 83.29046875 208.02570313 82.8934375 208.97265625 82.484375 C216.10644497 79.17659043 226.28936699 74.41063284 229.1875 66.6875 C229.8568315 63.41521267 229.7313679 61.52892481 227.90234375 58.69921875 C221.57489804 51.04574797 213.9287696 47.26653569 204.6875 44.0625 C202.28480374 43.20632252 199.88240729 42.34993652 197.48413086 41.48144531 C195.98999488 40.96492249 194.47956112 40.49268711 192.95532227 40.07324219 C189.05084187 38.90999377 186.9171912 37.91642261 184.90234375 34.28125 C184.28436364 32.92803797 183.69272736 31.56255194 183.125 30.1875 C182.47415706 28.74234435 181.81785539 27.29963529 181.15625 25.859375 C180.67285156 24.79686523 180.67285156 24.79686523 180.1796875 23.71289062 C178.29444423 19.8644708 175.81404309 16.40849289 173.33984375 12.921875 C171.9568793 10.24033037 172.3322317 9.4690384 173.1875 6.6875 C196.46634272 8.19229006 221.27992017 16.94287555 240.1875 30.6875 C240.76242187 31.09226563 241.33734375 31.49703125 241.9296875 31.9140625 C250.39133474 38.35894408 256.55008146 48.1768324 258.1875 58.6875 C258.56635036 65.6477741 258.6349244 72.11004693 256.1875 78.6875 C255.5275 78.6875 254.8675 78.6875 254.1875 78.6875 C254.09984375 79.41453125 254.0121875 80.1415625 253.921875 80.890625 C251.31215553 90.82976936 239.55896495 97.69966332 231.1875 102.6875 C197.62152321 122.26689775 155.34799227 127.88510967 117.1875 130.6875 C115.45161621 130.82103882 115.45161621 130.82103882 113.68066406 130.95727539 C103.1716314 131.69960499 92.71934499 131.80649674 82.1875 131.75 C80.52604304 131.74496627 78.86458458 131.74040673 77.203125 131.73632812 C73.19787829 131.72549087 69.19270666 131.70833374 65.1875 131.6875 C65.06415283 132.29150635 64.94080566 132.8955127 64.8137207 133.51782227 C64.64445068 134.31760498 64.47518066 135.1173877 64.30078125 135.94140625 C64.0538855 137.12585327 64.0538855 137.12585327 63.80200195 138.33422852 C63.20847436 140.60717746 62.41986039 142.52736575 61.375 144.625 C59.28393042 149.06271433 58.016386 153.59067527 56.75 158.3125 C54.9390609 165.0601747 52.91600482 171.66957121 50.63671875 178.27734375 C49.41891067 181.88892492 48.33842487 185.53312437 47.26953125 189.19140625 C46.92639893 190.35220703 46.5832666 191.51300781 46.22973633 192.70898438 C45.54705157 195.02841743 44.87586484 197.35127301 44.2175293 199.67773438 C42.40835574 205.78044246 40.81326799 210.23671995 36.1875 214.6875 C32.22849172 216.66700414 27.50256628 216.10194139 23.1875 215.6875 C19.83628242 214.31110706 17.96615353 213.34207534 16.39120483 209.99543762 C13.96981264 202.70744677 12.61412026 195.23938103 11.2265625 187.69921875 C10.95188413 186.23206522 10.67667516 184.76501094 10.40097046 183.29804993 C9.67718238 179.43834918 8.96116126 175.57724625 8.24664307 171.71582031 C7.6772212 168.64560137 7.10234762 165.57641647 6.52715302 162.50727463 C3.7581954 147.73214596 1.0340628 132.94906889 -1.6171875 118.15234375 C-1.81549164 117.04767258 -2.01379578 115.9430014 -2.21810913 114.80485535 C-3.55648225 107.28685994 -4.79537433 99.75683615 -5.91104126 92.20246887 C-6.45232797 88.32601057 -6.45232797 88.32601057 -7.8125 84.6875 C-7.93476456 85.27234161 -8.05702911 85.85718323 -8.18299866 86.45974731 C-11.23369685 101.04440254 -14.31444487 115.62242222 -17.42773438 130.19384766 C-18.26684345 134.12176095 -19.10047316 138.05068885 -19.92382812 141.98193359 C-20.79971963 146.16022778 -21.70837021 150.3304556 -22.625 154.5 C-22.86549072 155.66869629 -23.10598145 156.83739258 -23.35375977 158.04150391 C-24.79859749 164.44567567 -26.55805565 169.46384415 -31.8125 173.6875 C-36.60143964 175.28381321 -40.98263338 175.51925756 -45.5625 173.4375 C-50.49823035 169.59859862 -52.68131685 166.21812324 -54.546875 160.265625 C-54.78623779 159.53621704 -55.02560059 158.80680908 -55.2722168 158.05529785 C-56.0469115 155.68619667 -56.80471796 153.31205879 -57.5625 150.9375 C-58.09156848 149.30982919 -58.62184819 147.68255161 -59.15332031 146.05566406 C-60.21447733 142.80318256 -61.26980588 139.54890521 -62.3203125 136.29296875 C-64.35632627 129.99282602 -66.45824802 123.71515258 -68.5625 117.4375 C-69.20349515 115.51574842 -69.8441635 113.59388778 -70.484375 111.671875 C-70.7431543 110.89553711 -71.00193359 110.11919922 -71.26855469 109.31933594 C-71.44805664 108.78083008 -71.62755859 108.24232422 -71.8125 107.6875 C-74.12455098 112.85045199 -76.39934928 118.02238576 -78.5625 123.25 C-78.99046875 124.28253906 -79.4184375 125.31507813 -79.859375 126.37890625 C-80.17390625 127.14074219 -80.4884375 127.90257812 -80.8125 128.6875 C-81.4725 128.6875 -82.1325 128.6875 -82.8125 128.6875 C-82.8125 129.3475 -82.8125 130.0075 -82.8125 130.6875 C-88.69731741 133.83519303 -93.27329982 134.81075036 -99.90939331 134.82121277 C-101.74722885 134.82761024 -101.74722885 134.82761024 -103.62219238 134.83413696 C-104.97192386 134.83378748 -106.32165531 134.83332597 -107.67138672 134.83276367 C-109.09917285 134.83575732 -110.52695817 134.83916032 -111.95474243 134.84294128 C-115.82669804 134.8517644 -119.69863153 134.85411868 -123.57059622 134.85475707 C-125.99136299 134.85546851 -128.41212417 134.8576046 -130.83288956 134.86025429 C-139.28296515 134.86950197 -147.73302498 134.87358988 -156.18310547 134.87280273 C-164.05211893 134.87220202 -171.92106382 134.88275401 -179.79005992 134.8985464 C-186.55285014 134.9116337 -193.31561798 134.91698613 -200.07842076 134.91634732 C-204.11450877 134.9160927 -208.15053581 134.91892449 -212.18661118 134.92952538 C-215.98364649 134.93922645 -219.78056281 134.9392718 -223.57760239 134.93200874 C-224.96791763 134.93096541 -226.35824035 134.93331082 -227.74854279 134.9393692 C-243.93299953 135.00530419 -243.93299953 135.00530419 -248.5546875 131.28515625 C-252.27152024 126.24820705 -253.23683863 122.94649477 -252.8125 116.6875 C-250.82405883 111.35010527 -247.90582352 108.23416176 -242.8125 105.6875 C-240.93728323 105.59384594 -239.0586751 105.56558979 -237.18112183 105.56724548 C-235.98356262 105.56587082 -234.78600342 105.56449615 -233.55215454 105.56307983 C-232.21820044 105.56661919 -230.88424658 105.570254 -229.55029297 105.57397461 C-228.151001 105.57425656 -226.75170888 105.57409858 -225.35241699 105.5735321 C-221.54685878 105.57324446 -217.74133191 105.57913594 -213.935781 105.58610606 C-209.96126812 105.592345 -205.98675457 105.59294383 -202.01223755 105.59413147 C-194.48286256 105.59724319 -186.95350203 105.60545444 -179.42413342 105.61548096 C-170.85351449 105.62664703 -162.28289489 105.6321538 -153.7122705 105.63717639 C-136.07900545 105.64763717 -118.44575389 105.66523354 -100.8125 105.6875 C-100.5044298 104.65649091 -100.5044298 104.65649091 -100.19013596 103.60465336 C-99.92039585 102.70338939 -99.65065575 101.80212542 -99.3727417 100.87355042 C-99.10548656 99.97996102 -98.83823143 99.08637163 -98.56287766 98.16570377 C-94.96631415 86.28766186 -90.68449509 74.54042415 -86.125 63 C-85.86428711 62.31220459 -85.60357422 61.62440918 -85.33496094 60.91577148 C-83.58801995 56.62184275 -81.74932132 54.15026037 -77.8125 51.6875 C-73.43604126 50.20290622 -69.19720737 50.09409321 -65 52.125 C-59.01365725 56.32253461 -57.08005079 64.31299621 -54.9375 70.9921875 C-54.68629395 71.7562088 -54.43508789 72.5202301 -54.17626953 73.30740356 C-53.3825154 75.72390761 -52.59690582 78.14294697 -51.8125 80.5625 C-50.77496414 83.74875982 -49.7334985 86.93369572 -48.6875 90.1171875 C-48.43935547 90.87279968 -48.19121094 91.62841187 -47.93554688 92.40692139 C-46.10670879 97.92345907 -44.10173564 103.34314473 -41.8125 108.6875 C-40.33224568 105.95034377 -39.42707167 103.49865705 -38.82617188 100.44946289 C-38.65801971 99.61238297 -38.48986755 98.77530304 -38.31661987 97.91285706 C-38.13994781 97.00446579 -37.96327576 96.09607452 -37.78125 95.16015625 C-37.38363619 93.17122198 -36.98601203 91.18228978 -36.58837891 89.19335938 C-36.38061829 88.14301514 -36.17285767 87.0926709 -35.95880127 86.01049805 C-34.86129624 80.47374116 -33.7397443 74.94188026 -32.6171875 69.41015625 C-32.27196548 67.70842758 -32.27196548 67.70842758 -31.91976929 65.97232056 C-29.72033283 55.16808976 -27.44121952 44.38232749 -25.07788086 33.61276245 C-24.65421327 31.67744714 -24.23407173 29.74135625 -23.81762695 27.80447388 C-23.23447853 25.09658284 -22.63859456 22.3918045 -22.0390625 19.6875 C-21.87270294 18.90511459 -21.70634338 18.12272919 -21.53494263 17.31663513 C-20.1233813 11.06623888 -18.39841544 4.05792249 -13.5625 -0.375 C-8.75043584 -2.01547642 -4.64286396 -2.16666985 0 0 Z " fill="#38BCF7" transform="translate(259.8125,164.3125)"/>
<path d="M0 0 C2.38895276 1.06175678 4.80161932 1.89564518 7.27734375 2.734375 C24.34239569 8.89675487 43.16154079 19.23641246 56.21484375 31.984375 C56.21484375 32.644375 56.21484375 33.304375 56.21484375 33.984375 C57.10997681 34.39490112 57.10997681 34.39490112 58.02319336 34.8137207 C73.33832424 42.99418774 84.87021035 63.50549364 93.21484375 77.984375 C93.55112793 78.56654785 93.88741211 79.1487207 94.23388672 79.74853516 C101.49268746 92.44206036 106.4568544 105.39056479 110.08984375 119.546875 C110.30535889 120.37985107 110.52087402 121.21282715 110.74291992 122.07104492 C111.90515753 126.83992788 112.43877908 131.07755664 112.21484375 135.984375 C103.19111547 139.19621049 93.87862841 142.28863209 84.21484375 141.984375 C83.93511719 140.76105469 83.65539062 139.53773438 83.3671875 138.27734375 C74.03146307 98.57766245 54.49812664 65.09536057 19.21484375 42.984375 C-12.89311355 23.18874024 -51.44652077 15.44232554 -88.63867188 23.47509766 C-94.81928503 24.94151702 -100.79956839 26.86921473 -106.78515625 28.984375 C-107.9040625 29.36464844 -109.02296875 29.74492187 -110.17578125 30.13671875 C-124.29549511 35.20139872 -136.97133168 43.25282025 -148.34765625 52.984375 C-150.78515625 54.984375 -150.78515625 54.984375 -152.78515625 54.984375 C-153.28015625 56.469375 -153.28015625 56.469375 -153.78515625 57.984375 C-155.24609375 59.3515625 -155.24609375 59.3515625 -157.16015625 60.859375 C-181.62817575 81.73816803 -195.7112215 114.97755248 -199.328125 146.4453125 C-199.78515625 149.984375 -199.78515625 149.984375 -200.78515625 150.984375 C-202.91868799 151.08440789 -205.05553167 151.11518548 -207.19140625 151.1171875 C-208.49207031 151.11847656 -209.79273438 151.11976563 -211.1328125 151.12109375 C-211.81359863 151.11899902 -212.49438477 151.1169043 -213.19580078 151.11474609 C-215.2764414 151.1093974 -217.35686614 151.1146918 -219.4375 151.12109375 C-221.38849609 151.11916016 -221.38849609 151.11916016 -223.37890625 151.1171875 C-224.58224609 151.11605957 -225.78558594 151.11493164 -227.02539062 151.11376953 C-229.78515625 150.984375 -229.78515625 150.984375 -230.78515625 149.984375 C-230.60226712 139.74258373 -229.05163473 130.36204975 -225.6875 120.73828125 C-224.75176002 117.88245145 -223.94802118 115.00037259 -223.14746094 112.10424805 C-216.76979915 89.3730205 -205.20006442 68.85617219 -189.78515625 50.984375 C-189.32753906 50.45376465 -188.86992187 49.9231543 -188.3984375 49.37646484 C-168.61969851 26.6960131 -141.46235294 6.35215126 -111.78515625 -1.015625 C-110.79515625 -1.015625 -109.80515625 -1.015625 -108.78515625 -1.015625 C-108.78515625 -1.675625 -108.78515625 -2.335625 -108.78515625 -3.015625 C-76.13106636 -14.75441279 -31.61253716 -14.86303736 0 0 Z " fill="#38BCF7" transform="translate(332.78515625,108.015625)"/>
<path d="M0 0 C1.0561301 3.16839029 0.97780567 4.02424894 0.25 7.1484375 C0.05744629 7.97859375 -0.13510742 8.80875 -0.33349609 9.6640625 C-0.55344238 10.55867188 -0.77338867 11.45328125 -1 12.375 C-1.3395874 13.7671875 -1.3395874 13.7671875 -1.68603516 15.1875 C-5.45496068 30.19242416 -9.85215228 44.75294246 -18 58 C-18.58910156 58.96164062 -19.17820312 59.92328125 -19.78515625 60.9140625 C-23.40327179 66.68714357 -27.19653622 72.34779376 -31 78 C-31.66 78.99 -32.32 79.98 -33 81 C-33.66 81 -34.32 81 -35 81 C-35.22042969 81.53753906 -35.44085938 82.07507813 -35.66796875 82.62890625 C-37.45051303 85.80193962 -39.8359151 88.30304514 -42.3125 90.9375 C-42.78623047 91.44990234 -43.25996094 91.96230469 -43.74804688 92.49023438 C-74.89039106 126.01831218 -117.40584656 147.03629939 -163.33056641 149.10498047 C-204.29499469 150.46008073 -246.5996529 137.92775727 -278 111 C-278.90878906 110.2884375 -279.81757813 109.576875 -280.75390625 108.84375 C-294.25914967 98.23934834 -305.01293221 85.90384836 -315 72 C-315.65484375 71.1028125 -316.3096875 70.205625 -316.984375 69.28125 C-327.90304262 53.26720415 -336.91686196 33.3646812 -339 14 C-334.90658501 13.97530425 -330.81319879 13.95714207 -326.71972656 13.94506836 C-325.32681523 13.9400357 -323.9339092 13.93320902 -322.54101562 13.92456055 C-320.54038754 13.91244848 -318.53972112 13.90729588 -316.5390625 13.90234375 C-315.33459473 13.89710693 -314.13012695 13.89187012 -312.88916016 13.88647461 C-310 14 -310 14 -308 15 C-307.2253222 17.16489415 -306.53212165 19.3590746 -305.875 21.5625 C-300.27946073 39.30529043 -290.07714473 58.15164311 -276.73046875 71.22265625 C-275 73 -275 73 -275 75 C-274.44054687 75.2371875 -273.88109375 75.474375 -273.3046875 75.71875 C-270.47093687 77.29412323 -268.46388964 79.25352849 -266.125 81.5 C-246.45568473 99.78438724 -221.53274941 111.89580565 -195 116 C-193.83726562 116.20367187 -192.67453125 116.40734375 -191.4765625 116.6171875 C-154.18406104 122.52250769 -117.52305573 112.60508551 -87.0625 90.8125 C-84.1047324 88.62651141 -81.22917885 86.3938309 -78.4375 84 C-76 82 -76 82 -74 82 C-73.5978125 81.1028125 -73.5978125 81.1028125 -73.1875 80.1875 C-72.00082594 78.00152146 -70.90400887 76.58667406 -69 75 C-68.34 75 -67.68 75 -67 75 C-66.7421875 74.41863281 -66.484375 73.83726562 -66.21875 73.23828125 C-64.89785509 70.81240694 -63.4133848 69.17538134 -61.5 67.1875 C-45.78424692 49.76351289 -36.14423568 27.42107055 -30 5 C-27.31339217 4.35025795 -24.62581326 3.70511582 -21.9375 3.0625 C-21.18533203 2.88009766 -20.43316406 2.69769531 -19.65820312 2.50976562 C-13.1036547 0.94915886 -6.76867744 -0.16508969 0 0 Z " fill="#38BCF7" transform="translate(446,296)"/>
<path d="M0 0 C1.32 0.33 2.64 0.66 4 1 C4.24234375 2.02480469 4.4846875 3.04960937 4.734375 4.10546875 C5.07224003 5.466314 5.41081969 6.82698197 5.75 8.1875 C5.90726562 8.86103516 6.06453125 9.53457031 6.2265625 10.22851562 C7.35809133 14.68935045 8.70605252 17.76497824 12 21 C14.46157641 22.33066496 14.46157641 22.33066496 17.1875 23.125 C18.1465625 23.44210938 19.105625 23.75921875 20.09375 24.0859375 C21.0528125 24.38757813 22.011875 24.68921875 23 25 C24.72976433 25.5815587 26.45899314 26.16471445 28.1875 26.75 C29.4578141 27.16824702 30.72843723 27.58556473 32 28 C31.505 29.485 31.505 29.485 31 31 C28.58193061 31.78415814 26.28602107 32.40059353 23.8125 32.9375 C18.49018478 34.09542809 14.19609826 35.29791912 10 39 C8.65685907 41.57366823 7.91109288 44.1970297 7.1875 47 C6.88295898 48.06734375 6.88295898 48.06734375 6.57226562 49.15625 C5.64948886 52.42099157 4.81804068 55.70780734 4 59 C2.68 59 1.36 59 0 59 C-0.48919922 57.12054688 -0.48919922 57.12054688 -0.98828125 55.203125 C-1.42921793 53.55195786 -1.8706502 51.90092302 -2.3125 50.25 C-2.52583984 49.425 -2.73917969 48.6 -2.95898438 47.75 C-4.44020334 41.8151706 -4.44020334 41.8151706 -8 37 C-10.62691466 35.76143821 -10.62691466 35.76143821 -13.625 34.9375 C-14.68460937 34.61136719 -15.74421875 34.28523438 -16.8359375 33.94921875 C-17.88007813 33.63597656 -18.92421875 33.32273438 -20 33 C-21.75219611 32.4232968 -23.50251244 31.84081722 -25.25 31.25 C-26.4875 30.8375 -27.725 30.425 -29 30 C-25.94439403 26.44611775 -23.61487891 25.30564193 -19.0625 24.3125 C-18.04285156 24.08175781 -17.02320313 23.85101563 -15.97265625 23.61328125 C-13.31699588 23.06539862 -10.66042588 22.52424598 -8 22 C-8 21.34 -8 20.68 -8 20 C-7.34 20 -6.68 20 -6 20 C-5.81824219 19.39414063 -5.63648438 18.78828125 -5.44921875 18.1640625 C-3.6328125 12.109375 -1.81640625 6.0546875 0 0 Z " fill="#38BCF6" transform="translate(338,174)"/>
</svg>
